<svg height="124" viewBox="0 0 590 124" width="590" xmlns="http://www.w3.org/2000/svg"><g fill="none"><g fill="#3b3f44"><path d="m163.08574 32.7728367c-.299031.5240644-.697879.9830541-1.173497 1.3504459-.462039.3207281-1.01569.4789131-1.575529.4501486-.647156-.0203035-1.27877-.2053473-1.836305-.5379825l-2.238337-1.2296743c-.916885-.4868462-1.872847-.8945284-2.857682-1.218695-1.176549-.3771078-2.405864-.5587967-3.640014-.5379825-1.877732-.1324019-3.740097.420846-5.248139 1.5590513-1.162445 1.0377885-1.797594 2.5514313-1.727648 4.117213-.020688 1.025879.371403 2.0163477 1.086571 2.7448087.79063.7907125 1.718897 1.4271891 2.73816 1.8774491 1.253825.5749881 2.546474 1.0592923 3.868193 1.449259 1.44514.4391694 2.933743.9222557 4.444077 1.4602382 1.517312.5435599 3.00129 1.1778153 4.444076 1.8994076 1.404309.7052279 2.691083 1.6276045 3.813865 2.7338295 1.161488 1.183393 2.087341 2.5810917 2.727294 4.117213.754328 1.8512231 1.124166 3.8393168 1.086571 5.8409529.01888 2.4303156-.423745 4.8417339-1.303885 7.1035648-.83663 2.1705381-2.122059 4.1356699-3.770403 5.7640983-1.745239 1.7033384-3.820723 3.0229471-6.095664 3.8756698-2.637331.9731315-5.428879 1.4494525-8.23621 1.4053421-1.729784-.0035664-3.454973-.1800943-5.150348-.5270033-1.733742-.3467925-3.434983-.8426622-5.085153-1.4821967-1.59494-.6201854-3.132911-1.3806726-4.596197-2.2727016-1.364982-.8212809-2.62723-1.8055037-3.759536-2.9314556l3.726939-5.939766c.278803-.4643166.676802-.8437099 1.151766-1.0979235.488207-.2751602 1.038243-.4188318 1.59726-.4172109.802729.0201799 1.583061.2715808 2.249202.7246295.7606.4721071 1.608125.9991103 2.564308 1.5700305 1.037585.6244602 2.12853 1.1535851 3.259714 1.5810098 1.395245.4971087 2.867054.7387764 4.346285.7136503 1.891687.1199734 3.766943-.4186441 5.313333-1.5261136 1.35411-1.2112403 2.059609-2.9995251 1.9015-4.8198841.037948-1.140328-.349916-2.2533718-1.086572-3.1181026-.763294-.8534564-1.696377-1.5343902-2.738159-1.9982207-1.240764-.5711251-2.52761-1.0339406-3.846462-1.3833836-1.434274-.4062317-2.912011-.8454011-4.422345-1.3394667-1.516876-.4868411-2.995196-1.0887512-4.422345-1.8005945-1.436307-.7102388-2.741085-1.6646937-3.857328-2.8216633-1.185725-1.2686994-2.112468-2.7610123-2.727294-4.3916939-.765483-2.0586346-1.134297-4.2461922-1.086571-6.4448108.004438-2.0685911.422052-4.1149947 1.227826-6.0166206.833518-1.9712403 2.061746-3.746853 3.607416-5.2151365 1.689736-1.5950763 3.671906-2.8408149 5.834888-3.6670644 2.532494-.9528609 5.219119-1.4183434 7.921104-1.3724043 1.626973-.0030971 3.251431.1292827 4.856973.3952524 1.524312.2487606 3.022819.6383267 4.476674 1.1637989 1.372716.4967545 2.699773 1.1139463 3.965985 1.8445115 1.174321.680966 2.267958 1.495029 3.259713 2.4264108z"/><path d="m190.066365 37.0019153c2.766615-.0358214 5.516461.4311031 8.113512 1.3776763 4.792434 1.7510748 8.576479 5.4883052 10.362365 10.2341666 1.003488 2.6480338 1.497076 5.4593232 1.455141 8.2879256.043265 2.8536206-.450212 5.6902333-1.455141 8.3644631-.896324 2.3709144-2.286093 4.5279874-4.078803 6.3307506-1.787839 1.7569345-3.92887 3.1204965-6.283562 4.0018215-2.594194.9593454-5.345086 1.4338619-8.113512 1.3995442-2.786288.0332912-5.555063-.4410873-8.16863-1.3995442-2.367234-.8886629-4.524845-2.2508353-6.338681-4.0018215-1.806444-1.7981993-3.207895-3.9559095-4.111875-6.3307506-1.001172-2.6749399-1.490906-5.511531-1.444117-8.3644631-.045457-2.8279092.444388-5.6391765 1.444117-8.2879256.907457-2.3538252 2.309062-4.489412 4.111875-6.2651469 1.815506-1.7409226 3.973285-3.0920347 6.338681-3.9690197 2.616375-.9457763 5.384131-1.4125707 8.16863-1.3776763zm0 31.3913381c2.352512.1912327 4.629488-.875473 5.974896-2.7990883 1.27876-1.8915714 1.907116-4.7453294 1.907116-8.5940759 0-3.8487464-.628356-6.6915705-1.907116-8.5722079-1.340165-1.9319054-3.618083-3.0073899-5.974896-2.8209562-2.378857-.1844843-4.682079.8768929-6.074109 2.7990883-1.27876 1.8806375-1.91814 4.7380401-1.91814 8.572208 0 3.8487464.63938 6.7025044 1.91814 8.5940758 1.38549 1.9321788 3.690642 3.0027445 6.074109 2.8209562z"/><path d="m244.589435 46.7793788c-.296696.3758531-.635161.7169718-1.008913 1.0168261-.408963.2768526-.89974.4078482-1.392739.3717428-.547345.0055057-1.085802-.138157-1.557235-.4154773l-1.557235-.9184235c-.647051-.3636292-1.326153-.6673951-2.028793-.9074899-.929771-.3049622-1.905847-.4455699-2.884175-.4154773-1.277063-.033293-2.543773.2365292-3.695693.7872201-1.028599.5030839-1.914554 1.254831-2.577115 2.1867227-.719781 1.0880665-1.229324 2.3006346-1.502403 3.5752916-.33628 1.5664769-.498101 3.1651761-.482523 4.7670554 0 3.7174285.712819 6.560168 2.193289 8.5719528 1.335867 1.9476519 3.578672 3.0780735 5.943814 2.9958101 1.093825.0449382 2.18578-.1259818 3.213169-.5029463.710458-.2830077 1.384239-.6500919 2.006859-1.0933613l1.524336-1.0933613c.506193-.3640386 1.119987-.5487802 1.743665-.5248135.825299-.0464289 1.616545.333554 2.094592 1.0058925l3.377665 4.154773c-1.094882 1.2891902-2.368896 2.4158024-3.783424 3.3456857-1.271778.8379946-2.641846 1.5173057-4.079518 2.0227185-1.354386.4798757-2.754388.8205854-4.178216 1.016826-1.355952.1809951-2.722434.2723082-4.090485.2734543-2.337235.0082968-4.652603-.4489296-6.810163-1.3449484-2.159695-.8890977-4.106691-2.222951-5.713518-3.9142336-1.707518-1.8202434-3.034643-3.9610728-3.904055-6.2977612-1.003328-2.7336002-1.490404-5.628767-1.436605-8.539152-.019979-2.6640075.402455-5.3129411 1.250175-7.8394008.790909-2.3386626 2.0564-4.4898831 3.717626-6.3196285 1.696338-1.8292025 3.773759-3.265982 6.086377-4.2094411 2.660058-1.0704566 5.51044-1.5912141 8.378365-1.5307059 2.750267-.0588891 5.48421.4356891 8.038405 1.4541706 2.337955.9980779 4.454872 2.4472434 6.228942 4.2641092z"/><path d="m264.999841 26.80033c.006454.8933228-.183944 1.7772023-.557799 2.5894563-.362647.8178555-.882848 1.5571151-1.531212 2.1760137-.662.6154171-1.42856 1.109051-2.264008 1.4579292-.873708.3590599-1.810881.5403355-2.756183.5331234-.913563.0082668-1.818795-.1733158-2.657748-.5331234-.810286-.3530996-1.550972-.8467655-2.187446-1.4579292-.638541-.6201883-1.14774-1.3596592-1.498401-2.1760137-.365152-.814701-.551579-1.697458-.546955-2.5894563-.004767-.9095606.181502-1.8100938.546955-2.6438566.353875-.8145944.862671-1.55348 1.498401-2.1760137.630709-.6182323 1.372781-1.112822 2.187446-1.4579292.840963-.3521733 1.745338-.5298817 2.657748-.5222433 1.868996-.0166811 3.670539.6939226 5.020191 1.9801725.645617.621235 1.165418 1.3599261 1.531212 2.1760137.372993.831742.563166 1.7331208.557799 2.6438566zm-1.34528 10.5754267v38.6242433h-11.604405v-38.6242433z"/><path d="m288.850994 37.0030818c2.375131-.0329597 4.736565.3703589 6.970368 1.1904968 2.014845.7578431 3.848112 1.941713 5.378369 3.4731925 1.55108 1.5907067 2.753438 3.4963908 3.528211 5.5920584.880455 2.3950274 1.310987 4.9364003 1.269295 7.4924845.012987.7297671-.022951 1.4595858-.107567 2.1843978-.042918.4599343-.178381.906024-.397999 1.3106387-.183332.3097137-.463582.5481245-.795999.6771633-.409765.1340997-.838914.196876-1.269295.1856738h-22.00829c.365729 3.2765967 1.333836 5.5920584 2.915076 7.044683 1.667817 1.4975935 3.842374 2.2805595 6.066802 2.1843978 1.161467.0222088 2.319222-.1399349 3.4314-.4805676.875598-.2985213 1.727794-.6636215 2.549347-1.0921989l2.065294-1.0921989c.609175-.3168861 1.284017-.4816358 1.968483-.4805675.812836-.0481141 1.592949.3314328 2.065295 1.004823l3.313075 4.1503558c-1.097517 1.3011559-2.381102 2.4277402-3.807886 3.3421287-1.317224.8420854-2.7293 1.5204673-4.205885 2.020568-1.398553.4788995-2.839518.8190708-4.302696 1.0157449-1.362626.1791589-2.735074.2703586-4.109074.2730498-2.567465.0192303-5.117589-.4283487-7.529718-1.3215607-2.29707-.8623063-4.389762-2.2056816-6.142099-3.9428381-1.826547-1.8624413-3.245119-4.0955655-4.162858-6.5531934-1.072392-2.8880052-1.590859-5.9576235-1.527457-9.0434069-.011677-2.5148297.433194-5.0103117 1.312322-7.3614206 1.697187-4.6245938 5.200482-8.3318966 9.681066-10.2448257 2.484831-1.0567065 5.158869-1.577414 7.85242-1.5290785zm.225892 7.994896c-1.878844-.1013966-3.716893.5811985-5.087938 1.8895041-1.350416 1.5190263-2.200265 3.4281085-2.431024 5.4609945h14.263464c.002032-.9113845-.117375-1.8188611-.354999-2.6977313-.218828-.8466875-.606952-1.6385793-1.140214-2.3263836-.555449-.7125226-1.266085-1.2845309-2.076051-1.6710644-.993782-.4641073-2.079863-.6883987-3.173238-.6553193z"/><path d="m326.005192 76.997411c-1.680066.0321088-3.352095-.2346748-4.934417-.7873198-2.733579-.9655071-4.869921-3.0924205-5.806495-5.7808685-.516731-1.4858703-.770579-3.0468927-.75065-4.6160667v-19.7800613h-3.311689c-.571465.0121064-1.125463-.1928004-1.545455-.5716157-.457507-.4414125-.695322-1.0557579-.651299-1.6824916v-4.4650739l6.237015-1.1863722 2.307144-9.3399854c.258942-1.1515373 1.375195-1.9191652 2.572078-1.7687732h6.115586v11.184255h9.526626v7.830057h-9.526626v19.0035267c-.021628.7697958.21057 1.525999.662338 2.1570405.44636.5845286 1.164803.9091191 1.909741.8628162.372801.0179464.746025-.025811 1.103896-.1294224.263941-.0698299.519336-.1674696.761689-.2912005l.607143-.2912004c.204703-.0894495.427095-.1336419.651299-.1294225.302685-.01746.602444.0662166.85.2372745.265895.2102465.490342.4660819.662338.7549642l3.554546 5.3926012c-1.528166 1.1483207-3.255834 2.0178721-5.100001 2.5668782-1.911508.5626757-3.898464.842598-5.894807.8304606z"/><path d="m359.292929 87.7098251c-.488918 1.5572753-2.051927 2.5153195-3.661882 2.2445457h-8.653376l7.454546-15.6682365-15.432217-35.2807718h10.222754c.741822-.0425242 1.476007.1688398 2.081605.5992719.49075.3588007.868847.8502094 1.089846 1.4164608l6.342903 16.670655c.583838 1.5075888 1.071611 3.0506228 1.460393 4.6198417.239766-.7953973.512228-1.5690028.817385-2.3426084.305157-.7736055.577618-1.558107.860978-2.3535042l5.743487-16.5943841c.220266-.5943916.630053-1.0998022 1.166135-1.4382525.558189-.373276 1.213894-.5741087 1.885434-.5774802h9.32908z"/></g><g fill="#9e9a98"><path d="m385 22.0241392h6.010035c.574494-.0218265 1.139467.1526586 1.603403.4951914.411665.3061214.713981.738523.861693 1.2324763l11.049302 37.5134984c.196335.6822637.381762 1.4085444.545375 2.2008506s.316318 1.5956167.469023 2.4429441c.163612-.8473274.338132-1.6726464.512652-2.4649526.161484-.743746.361733-1.478383.599913-2.2008506l12.58726-37.5134984c.177131-.4664605.479231-.874103.872601-1.177455.444704-.3688732 1.006039-.5641537 1.581588-.5502127h2.094241c.571367-.0237128 1.1335.1510841 1.592495.4951914.402072.3178336.704992.7456835.872601 1.2324763l12.510907 37.5355069c.488139 1.4702779.885211 2.969748 1.188918 4.4897352.152705-.8363232.283595-1.6286294.414485-2.3769187.113919-.71412.274242-1.4199136.47993-2.1128165l11.092932-37.5134984c.143237-.4813181.438091-.9024112.839878-1.1994635.449578-.3575639 1.009336-.5445064 1.581588-.5282042h5.63918l-16.688482 53.9758608h-6.489965l-13.558028-41.1669103c-.304559-.8890941-.552304-1.796973-.74171-2.7180505-.13089.5061956-.239965.9903827-.359948 1.4525614-.119982.4621786-.229057.8803402-.34904 1.2654891l-13.623473 41.1669103h-6.544502z"/><path d="m474.038229 37.0020975c2.555173-.0375842 5.092712.4302464 7.467804 1.3767936 2.151773.8781192 4.08446 2.2211632 5.660726 3.9336959 1.60189 1.7821024 2.821037 3.8762065 3.581497 6.1518632 1.668992 5.2492717 1.668992 10.8898084 0 16.1390801-.761452 2.2686794-1.980656 4.3554425-3.581497 6.1300094-1.574453 1.7092947-3.508085 3.0455305-5.660726 3.911842-4.815947 1.8061577-10.119661 1.8061577-14.935608 0-2.159077-.8660642-4.099864-2.2021055-5.682498-3.911842-1.614845-1.76991-2.845589-3.8573888-3.614155-6.1300094-1.698363-5.244641-1.698363-10.8944391 0-16.1390801.766132-2.2802516 1.996983-4.3753545 3.614155-6.1518632 1.584423-1.7129921 3.524272-3.0558481 5.682498-3.9336959 2.375092-.9465472 4.912631-1.4143778 7.467804-1.3767936zm0 33.8079307c3.723016 0 6.506206-1.252955 8.349571-3.7588649 1.843364-2.50591 2.761418-6.0025286 2.754203-10.4898557 0-4.509181-.918096-8.0240111-2.754203-10.5444903-1.836108-2.5204793-4.619298-3.7807189-8.349571-3.7807189-1.69108-.0386394-3.370225.2932314-4.920477.9724971-1.373926.6337178-2.570564 1.5983806-3.483524 2.8082218-.981497 1.3339413-1.691711 2.8488186-2.090114 4.4581886-.907642 3.9547505-.907642 8.0648758 0 12.0196263.374356 1.6420035 1.074062 3.1916043 2.057456 4.5565311.923069 1.194461 2.117505 2.1498552 3.483524 2.7863679 1.56029.6839625 3.251095 1.0159345 4.953135.972497z"/><path d="m499 76v-38.3660219h3.642315c.509084-.0502255 1.017852.099363 1.429791.420389.312548.4100693.498388.912214.532258 1.4381726l.427894 5.9850109c1.056564-2.4334216 2.627891-4.5760457 4.59203-6.2615825 1.834114-1.4932695 4.096032-2.2742752 6.40797-2.2125734.915291-.0099277 1.827768.1091182 2.713473.3540117.789609.2299761 1.547457.5684191 2.254269 1.0067209l-.824478 5.0336044c-.075489.5760856-.558907.9918344-1.106262.9514065-.525327-.042567-1.042072-.1655341-1.534156-.3650746-.942072-.2674543-1.916105-.3867321-2.890891-.3540117-2.029707-.0742202-4.012758.6553951-5.562619 2.0466303-1.663481 1.6438249-2.939656 3.6786723-3.725807 5.9407595v24.3825583z"/><path d="m534.634146 21v32.3643712h1.712737c.416915.0121171.832394-.0544807 1.224933-.1963461.410677-.2087822.778463-.4937537 1.084011-.8399247l11.924119-12.8061246c.323162-.3643494.686888-.6900964 1.084011-.970822.446221-.2731991.963331-.4061362 1.485094-.381784h6.005421l-13.9187 14.8241255c-.346883.4254164-.693767.7962923-1.01897 1.0908113-.344154.331588-.726235.6208619-1.138211.8617409.441711.2903583.845886.6347804 1.203252 1.0253627.378769.4079226.719834.8497075 1.01897 1.3198816l14.699187 18.7074138h-5.940379c-.482986.0148309-.961397-.0980002-1.387534-.3272434-.423951-.2496198-.792815-.5836798-1.084011-.9817302l-12.357724-15.5004285c-.265586-.4316467-.639462-.7852948-1.084011-1.0253626-.536013-.1869902-1.102772-.2684637-1.669376-.2399785h-1.842819v18.0747432h-6.634146v-54.9987056z"/><path d="m586.939476 44.823068c-.255768.5207977-.796684.8415021-1.378235.8171434-.454549-.0211426-.895685-.1600974-1.279788-.4031241-.466704-.2687494-1.046437-.5738162-1.739201-.9152006-.791215-.3748818-1.610397-.6881493-2.450194-.936991-1.09669-.3020644-2.231351-.4451727-3.369017-.4249146-1.025893-.0142298-2.047861.1290902-3.029927.4249146-.833781.251611-1.615491.6501506-2.307996 1.1766864-.606812.463984-1.103523 1.0554555-1.454802 1.7323439-.346859.6738491-.523335 1.4218486-.514104 2.179049-.027348.885276.272339 1.7497808.842255 2.4296396.621124.6867114 1.362398 1.2552422 2.187673 1.6778677 1.011488.505225 2.065634.9208461 3.15025 1.2420579 1.170405.3595431 2.373625.7517719 3.609661 1.1548959 1.236035.4031241 2.439255.8716196 3.60966 1.3619056 1.12948.4769766 2.189135 1.1036663 3.15025 1.8630869.910129.7564824 1.654713 1.6909596 2.187673 2.7456017.595722 1.2123558.884866 2.5513881.842255 3.9004976.017403 1.6546211-.298761 3.2958935-.929762 4.8265935-.620004 1.4728949-1.570411 2.7848032-2.778345 3.8351261-1.309748 1.1411177-2.834214 2.0114523-4.48473 2.5603826-1.981934.6521744-4.060446.9653007-6.147362.9260958-2.456106.0344304-4.895934-.4020456-7.186507-1.2856389-2.000796-.7628493-3.851866-1.8691126-5.469183-3.2685734l1.564186-2.5276968c.17848-.2997196.42127-.5564348.710994-.7517719.332912-.1872747.711855-.2778626 1.093837-.2614859.516702.024564 1.013242.2071791 1.421988.5229717.492226.3486479 1.093836.7299814 1.815768 1.154896.817957.4730741 1.683097.8601218 2.581455 1.1548959 1.227814.380636 2.510167.5573228 3.795613.5229718 1.157692.0237042 2.311206-.1456949 3.41277-.5011813.892415-.2883679 1.718007-.7513957 2.428318-1.3619056.624838-.54011 1.118515-1.2143783 1.443864-1.9720393.31092-.7573639.470681-1.5678224.47035-2.3860586.03371-.9360594-.264468-1.854066-.842254-2.5930682-.605701-.7229456-1.349252-1.3191442-2.187674-1.7541345-1.010282-.5219754-2.068956-.9452351-3.161188-1.2638484-1.181343-.359543-2.395502-.7408766-3.631537-1.0895244-1.232959-.3922123-2.445044-.8467707-3.631538-1.3619056-1.140122-.5178471-2.194885-1.204781-3.128373-2.0374108-.922856-.7874948-1.668346-1.7602361-2.187673-2.8545542-.593176-1.2906053-.881313-2.6995162-.842254-4.1184025-.003286-1.435256.302577-2.8545139.896946-4.1619835.610677-1.3412751 1.506366-2.5345369 2.625208-3.4973736 1.243762-1.0644666 2.680696-1.8818065 4.233148-2.4078491 1.840586-.62556 3.776289-.9278581 5.720765-.89341 2.293427-.0361602 4.572774.3631869 6.716157 1.1766864 1.917202.7399008 3.668236 1.8508124 5.151971 3.2685734z"/></g><path d="m103.911668 79.7368v-.2514667-20.7733333l.088332-.0984-.088332-.0874667-10.3458967-48.1066666-49.1568107-10.4194667-44.4089606 43.2085333v21.1888.1093334l10.3458966 48.1066663 49.1347277 10.386667 44.4420847-43.2085333-.088332-.0874667zm-68.4573735-14.0712 13.7687653-13.3824 19.3447287 4.1.3091623 1.4541333-13.7356407 13.3824-19.3447287-4.1z" fill="#ffd877"/><path d="m49.2387426 31.3997424-17.5063722 17.2366895 4.075616 19.2378704 19.3508921 4.1460927 17.5063721-17.2366895-4.0756159-19.2378704zm-4.815633-31.3997424 49.1393373 10.503435 10.3491931 48.6474881.08836.08845-44.4672897 43.7606269-49.1503823-10.503435-10.34919291-48.6474881.05522515-.0552813-.08836024-.08845z" fill="#3b3f44"/></g></svg>